<?xml version="1.0" encoding="utf-8"?>
<!-- Generator: Adobe Illustrator 16.0.0, SVG Export Plug-In . SVG Version: 6.00 Build 0)  -->
<!DOCTYPE svg PUBLIC "-//W3C//DTD SVG 1.1//EN" "http://www.w3.org/Graphics/SVG/1.1/DTD/svg11.dtd">
<svg version="1.1" id="Capa_1" xmlns="http://www.w3.org/2000/svg" xmlns:xlink="http://www.w3.org/1999/xlink" x="0px" y="0px"
	 width="396px" height="321.666px" viewBox="378 37.167 396 321.666" enable-background="new 378 37.167 396 321.666"
	 xml:space="preserve">
<g>
	<g>
		<path fill="#010002" d="M774,75.226c-14.575,6.458-30.214,10.838-46.646,12.794c16.778-10.047,29.621-25.983,35.708-44.913
			c-15.738,9.304-33.109,16.06-51.619,19.722c-14.822-15.812-35.905-25.661-59.29-25.661c-44.863,0-81.239,36.376-81.239,81.214
			c0,6.359,0.718,12.57,2.104,18.51c-67.505-3.391-127.363-35.732-167.427-84.877c-7.003,11.977-10.987,25.933-10.987,40.83
			c0,28.185,14.353,53.054,36.128,67.604c-13.312-0.445-25.834-4.108-36.796-10.195v1.015c0,39.345,28.012,72.182,65.154,79.656
			c-6.806,1.831-13.981,2.846-21.405,2.846c-5.245,0-10.318-0.52-15.292-1.51c10.343,32.293,40.335,55.775,75.869,56.42
			c-27.789,21.776-62.828,34.718-100.887,34.718c-6.557,0-13.016-0.396-19.375-1.113c35.956,23.087,78.641,36.549,124.519,36.549
			c149.437,0,231.121-123.776,231.121-231.122l-0.272-10.517C749.329,105.811,763.137,91.508,774,75.226z"/>
	</g>
</g>
</svg>
