<?xml version="1.0" encoding="utf-8"?>
<!-- Generator: Adobe Illustrator 16.0.0, SVG Export Plug-In . SVG Version: 6.00 Build 0)  -->
<!DOCTYPE svg PUBLIC "-//W3C//DTD SVG 1.1//EN" "http://www.w3.org/Graphics/SVG/1.1/DTD/svg11.dtd">
<svg version="1.1" id="Layer_1" xmlns="http://www.w3.org/2000/svg" xmlns:xlink="http://www.w3.org/1999/xlink" x="0px" y="0px"
	 width="71.969px" height="95.356px" viewBox="0 0 71.969 95.356" enable-background="new 0 0 71.969 95.356" xml:space="preserve">
<path d="M71.583,23.536L36.499,0.146c-0.104-0.069-0.22-0.107-0.339-0.129c-0.008-0.001-0.016-0.003-0.024-0.004
	c-0.094-0.015-0.188-0.017-0.282-0.001c-0.056,0.007-0.108,0.027-0.162,0.045c-0.04,0.014-0.081,0.023-0.12,0.044
	c-0.005,0.002-0.009,0.007-0.014,0.01c-0.028,0.015-0.06,0.018-0.087,0.036L0.386,23.535c-0.25,0.167-0.401,0.449-0.401,0.75v46.78
	c0,0.042,0.011,0.082,0.017,0.125c0.003,0.025,0.004,0.051,0.011,0.077c0.023,0.1,0.061,0.194,0.115,0.28
	c0.01,0.015,0.022,0.025,0.033,0.041c0.055,0.075,0.121,0.141,0.197,0.197c0.011,0.008,0.017,0.021,0.029,0.029l35.083,23.39
	c0.151,0.101,0.327,0.151,0.501,0.151c0.173,0,0.349-0.051,0.5-0.151l34.991-23.327c0.016-0.007,0.031-0.01,0.047-0.018
	c0.293-0.156,0.475-0.463,0.475-0.795v-46.78C71.983,23.985,71.833,23.702,71.583,23.536z M61.187,63.284V18.772l8.994,5.996V69.38
	l-9.012-6.008C61.173,63.343,61.187,63.315,61.187,63.284z M48.991,54.837V10.641l10.393,6.929v44.612l-10.473-6.981
	C48.962,55.089,48.991,54.968,48.991,54.837z M36.899,2.58l10.289,6.859v44.613l-10.289-6.86V2.58z M35.984,48.751l33.46,22.305
	l-9.203,6.136L26.188,55.282L35.984,48.751z M48.649,84.919c-0.039-0.033-0.068-0.075-0.113-0.104L13.752,63.571l10.782-7.188
	c0.056,0.063,0.108,0.13,0.182,0.178l33.826,21.763L48.649,84.919z M1.789,24.768L35.096,2.563v13.038
	c-0.07,0.023-0.143,0.038-0.208,0.079L1.789,36.27V24.768z M1.789,38.448l33.307-20.721v12.9c-0.018,0.009-0.037,0.01-0.054,0.02
	L1.789,51.559V38.448z M1.789,53.768c0.091-0.023,0.181-0.06,0.264-0.112l33.043-20.779v14.298L1.789,69.381V53.768z M35.971,93.37
	L2.512,71.065l9.56-6.373l34.925,21.328L35.971,93.37z"/>
</svg>
