<?xml version="1.0" encoding="utf-8"?>
<!-- Generator: Adobe Illustrator 16.0.0, SVG Export Plug-In . SVG Version: 6.00 Build 0)  -->
<!DOCTYPE svg PUBLIC "-//W3C//DTD SVG 1.1//EN" "http://www.w3.org/Graphics/SVG/1.1/DTD/svg11.dtd">
<svg version="1.1" id="Layer_1" xmlns="http://www.w3.org/2000/svg" xmlns:xlink="http://www.w3.org/1999/xlink" x="0px" y="0px"
	 width="71.969px" height="95.356px" viewBox="0 0 71.969 95.356" enable-background="new 0 0 71.969 95.356" xml:space="preserve">
<g>
	<path d="M71.065,71.969c-0.174,0-0.349-0.052-0.499-0.153L35.482,48.428c-0.25-0.167-0.4-0.448-0.4-0.75V0.901
		c0-0.332,0.183-0.639,0.476-0.795c0.293-0.156,0.65-0.139,0.927,0.046l35.083,23.389c0.25,0.166,0.4,0.449,0.4,0.75v46.777
		c0,0.332-0.184,0.639-0.477,0.795C71.358,71.933,71.212,71.969,71.065,71.969 M36.886,47.195l33.278,22.187V24.773L36.886,2.586
		V47.195z"/>
	<path d="M0.902,71.968c-0.146,0-0.292-0.035-0.426-0.105C0.184,71.704,0,71.399,0,71.065V24.29c0-0.301,0.151-0.583,0.401-0.75
		L35.483,0.151c0.416-0.275,0.974-0.164,1.25,0.251c0.277,0.415,0.166,0.974-0.249,1.25L1.804,24.772v44.61l33.68-22.454
		c0.416-0.276,0.974-0.163,1.25,0.25c0.277,0.415,0.166,0.975-0.249,1.25L1.402,71.815C1.251,71.917,1.076,71.968,0.902,71.968"/>
	<path d="M35.984,95.356c-0.174,0-0.35-0.049-0.501-0.15L0.402,71.815c-0.415-0.275-0.527-0.834-0.25-1.25
		c0.274-0.414,0.833-0.526,1.25-0.25l34.583,23.057l34.583-23.057c0.416-0.276,0.974-0.164,1.249,0.25
		c0.278,0.416,0.166,0.975-0.248,1.25L36.484,95.206C36.333,95.308,36.158,95.356,35.984,95.356"/>
</g>
</svg>
