<?xml version="1.0" encoding="utf-8"?>
<!-- Generator: Adobe Illustrator 16.0.0, SVG Export Plug-In . SVG Version: 6.00 Build 0)  -->
<!DOCTYPE svg PUBLIC "-//W3C//DTD SVG 1.1//EN" "http://www.w3.org/Graphics/SVG/1.1/DTD/svg11.dtd">
<svg version="1.1" id="Layer_1" xmlns="http://www.w3.org/2000/svg" xmlns:xlink="http://www.w3.org/1999/xlink" x="0px" y="0px"
	 width="71.969px" height="95.356px" viewBox="0 0 71.969 95.356" enable-background="new 0 0 71.969 95.356" xml:space="preserve">
<path d="M0.386,71.82l35.085,23.391c0.104,0.068,0.219,0.107,0.338,0.129c0.009,0.002,0.017,0.003,0.025,0.004
	c0.094,0.016,0.188,0.018,0.281,0.002c0.056-0.008,0.107-0.027,0.162-0.045c0.04-0.015,0.081-0.023,0.119-0.045
	c0.006-0.002,0.01-0.007,0.014-0.01c0.029-0.015,0.061-0.018,0.088-0.035L71.583,71.82c0.25-0.166,0.4-0.449,0.4-0.75V24.292
	c0-0.042-0.01-0.083-0.016-0.125c-0.004-0.026-0.006-0.052-0.012-0.078c-0.023-0.1-0.061-0.194-0.115-0.28
	c-0.01-0.015-0.021-0.026-0.031-0.041c-0.055-0.076-0.121-0.142-0.197-0.198c-0.012-0.008-0.018-0.021-0.029-0.029L36.499,0.151
	C36.347,0.05,36.172,0,35.998,0c-0.173,0-0.349,0.05-0.5,0.151L0.507,23.478c-0.015,0.007-0.031,0.01-0.046,0.018
	c-0.293,0.157-0.476,0.463-0.476,0.795V71.07C-0.015,71.371,0.135,71.654,0.386,71.82z M10.782,32.072v44.512l-8.994-5.996V25.976
	l9.011,6.008C10.796,32.014,10.782,32.041,10.782,32.072z M22.978,40.52v44.195l-10.392-6.93V33.174l10.471,6.981
	C23.007,40.267,22.978,40.389,22.978,40.52z M35.069,92.775l-10.288-6.859V41.305l10.288,6.859V92.775z M35.985,46.606L2.524,24.3
	l9.204-6.135l34.054,21.91L35.985,46.606z M23.32,10.437c0.039,0.034,0.066,0.076,0.111,0.104l34.787,21.244l-10.783,7.188
	c-0.055-0.063-0.107-0.129-0.182-0.177L13.427,17.032L23.32,10.437z M35.998,1.986l33.458,22.305l-9.559,6.374L24.973,9.335
	L35.998,1.986z"/>
</svg>
