<?xml version="1.0" encoding="utf-8"?>
<!-- Generator: Adobe Illustrator 16.0.0, SVG Export Plug-In . SVG Version: 6.00 Build 0)  -->
<!DOCTYPE svg PUBLIC "-//W3C//DTD SVG 1.1//EN" "http://www.w3.org/Graphics/SVG/1.1/DTD/svg11.dtd">
<svg version="1.1" id="Layer_1" xmlns="http://www.w3.org/2000/svg" xmlns:xlink="http://www.w3.org/1999/xlink" x="0px" y="0px"
	 width="71.969px" height="95.356px" viewBox="0 0 71.969 95.356" enable-background="new 0 0 71.969 95.356" xml:space="preserve">
<g>
	<path fill="none" d="M24.507,56.41l-10.745,7.164L48.7,84.911l9.861-6.574L24.56,56.462C24.539,56.447,24.527,56.426,24.507,56.41z
		"/>
	<path fill="none" d="M2.732,53.209c-0.156,0.098-0.331,0.145-0.503,0.145c-0.153,0-0.304-0.038-0.44-0.109v16.145l33.295-22.197
		V32.865L2.732,53.209z"/>
	<path fill="none" d="M35.083,15.595V2.562L1.789,24.758v11.507l33.126-20.607C34.967,15.625,35.027,15.616,35.083,15.595z"/>
	<polygon fill="none" points="26.202,55.281 60.269,77.199 69.456,71.073 35.985,48.759 	"/>
	<polygon fill="none" points="35.083,17.731 1.789,38.444 1.789,51.561 35.083,30.625 	"/>
	<polygon fill="none" points="70.179,24.759 36.888,2.562 36.888,47.191 70.179,69.389 	"/>
	<polygon fill="none" points="2.513,71.074 35.986,93.39 47.003,86.042 12.066,64.705 	"/>
	<path d="M71.956,71.277c-0.023,0.098-0.059,0.191-0.113,0.277C71.896,71.471,71.933,71.377,71.956,71.277z"/>
	<path d="M71.808,71.6c-0.053,0.072-0.119,0.137-0.193,0.193C71.688,71.737,71.753,71.674,71.808,71.6z"/>
	<path d="M35.558,0.081c-0.017,0.009-0.029,0.023-0.045,0.033c0.093-0.058,0.191-0.099,0.293-0.12
		C35.721,0.011,35.638,0.039,35.558,0.081z"/>
	<path d="M36.197,0.007c0.096,0.023,0.189,0.058,0.272,0.112C36.384,0.065,36.292,0.03,36.197,0.007z"/>
	<path d="M36.486,1.627l-1.402,0.935v13.032c0.402-0.152,0.869-0.022,1.105,0.36c0.27,0.434,0.137,1.005-0.298,1.274l-0.808,0.503
		v12.893l0.31-0.195c0.444-0.277,1.03-0.145,1.308,0.298c0.279,0.444,0.146,1.029-0.299,1.308l-1.318,0.83v14.326l0.401-0.268
		c0.415-0.275,0.975-0.163,1.25,0.251c0.278,0.415,0.167,0.974-0.249,1.25l-0.501,0.334l33.471,22.314l1.127-0.751
		c0.416-0.276,0.975-0.164,1.25,0.25c0.127,0.191,0.162,0.411,0.135,0.621c0.006-0.04,0.016-0.078,0.016-0.119V24.276
		c0-0.301-0.15-0.584-0.4-0.75L36.486,0.127c0,0-0.002,0-0.002-0.001c0.097,0.064,0.183,0.148,0.251,0.251
		C37.013,0.792,36.901,1.352,36.486,1.627z M36.888,2.562l33.291,22.197v44.629L36.888,47.191V2.562z"/>
	<path d="M35.851-0.009c0.09-0.013,0.179-0.012,0.267,0.001C36.029-0.021,35.941-0.022,35.851-0.009z"/>
	<path d="M35.806-0.006c0.016-0.002,0.03-0.001,0.045-0.003C35.836-0.007,35.822-0.008,35.806-0.006z"/>
	<path d="M36.118-0.008C36.144-0.004,36.171,0,36.197,0.007C36.171,0,36.144-0.003,36.118-0.008z"/>
	<path d="M36.469,0.119c0.005,0.003,0.01,0.004,0.015,0.007C36.479,0.123,36.474,0.122,36.469,0.119z"/>
	<path d="M0.357,71.795c-0.078-0.058-0.144-0.124-0.197-0.199C0.214,71.673,0.28,71.738,0.357,71.795z"/>
	<path d="M0.127,71.556c-0.056-0.087-0.092-0.182-0.115-0.28C0.035,71.375,0.073,71.471,0.127,71.556z"/>
	<path d="M0.136,70.572c0.274-0.414,0.833-0.526,1.25-0.25l1.126,0.752l9.553-6.369l-0.418-0.256
		c-0.436-0.266-0.573-0.834-0.307-1.271c0.268-0.437,0.834-0.574,1.271-0.308l1.15,0.703l10.745-7.164
		c-0.386-0.295-0.496-0.832-0.229-1.248c0.281-0.438,0.863-0.562,1.3-0.283l0.624,0.402l9.783-6.522l-0.501-0.334
		c-0.25-0.167-0.4-0.449-0.4-0.751v-0.482L1.789,69.389V53.244c-0.144-0.074-0.271-0.187-0.365-0.334
		c-0.279-0.443-0.144-1.029,0.299-1.309l0.065-0.041V38.444l-0.056,0.036c-0.151,0.094-0.32,0.139-0.487,0.139
		c-0.309,0-0.611-0.155-0.787-0.437c-0.27-0.433-0.137-1.005,0.297-1.274l1.033-0.643V24.758L35.083,2.562V0.876
		c0-0.312,0.165-0.598,0.43-0.762c-0.01,0.006-0.02,0.006-0.028,0.012l-35.1,23.399c-0.25,0.167-0.401,0.449-0.401,0.75v46.798
		c0,0.042,0.011,0.083,0.017,0.125C-0.028,70.986,0.008,70.765,0.136,70.572z"/>
	<path d="M35.083,0.876v1.686l1.402-0.935c0.416-0.276,0.527-0.835,0.249-1.25c-0.068-0.103-0.154-0.187-0.251-0.251
		c-0.005-0.003-0.01-0.004-0.015-0.007c-0.083-0.054-0.177-0.089-0.272-0.112C36.171,0,36.144-0.004,36.118-0.008
		c-0.088-0.013-0.177-0.015-0.267-0.001c-0.015,0.002-0.029,0.001-0.045,0.003c-0.102,0.021-0.2,0.062-0.293,0.12
		C35.249,0.278,35.083,0.564,35.083,0.876z"/>
	<path d="M36.735,47.175c-0.275-0.414-0.835-0.526-1.25-0.251l-0.401,0.268v0.482c0,0.302,0.15,0.584,0.4,0.751l0.501,0.334
		l0.501-0.334C36.901,48.148,37.013,47.59,36.735,47.175z"/>
	<path d="M71.081,71.977c-0.174,0-0.348-0.053-0.498-0.152l-1.127-0.751l-9.188,6.126l0.434,0.279
		c0.438,0.281,0.564,0.863,0.283,1.3c-0.182,0.28-0.482,0.432-0.793,0.432c-0.174,0-0.35-0.049-0.508-0.149l-1.123-0.724
		L48.7,84.911l0.203,0.125c0.436,0.267,0.574,0.835,0.307,1.271c-0.172,0.284-0.477,0.441-0.787,0.441
		c-0.166,0-0.33-0.043-0.482-0.135l-0.938-0.572L35.986,93.39L2.513,71.074l-1.125,0.75c-0.151,0.1-0.326,0.15-0.5,0.15
		c-0.146,0-0.292-0.035-0.427-0.105c-0.038-0.021-0.069-0.049-0.103-0.074c0.012,0.008,0.017,0.021,0.029,0.029l35.098,23.399
		c0.151,0.102,0.327,0.151,0.502,0.151c0.173,0,0.348-0.05,0.5-0.151l35.097-23.399c0.014-0.009,0.02-0.022,0.031-0.031
		c-0.035,0.025-0.066,0.056-0.105,0.076C71.376,71.941,71.228,71.977,71.081,71.977z"/>
	<path d="M0.012,71.275c-0.006-0.025-0.007-0.052-0.011-0.077C0.005,71.225,0.006,71.25,0.012,71.275z"/>
	<path d="M71.808,71.6c0.012-0.016,0.025-0.029,0.035-0.045C71.833,71.57,71.817,71.584,71.808,71.6z"/>
	<path d="M0.16,71.596c-0.01-0.014-0.023-0.025-0.032-0.04C0.137,71.57,0.149,71.582,0.16,71.596z"/>
	<path d="M71.968,71.193c-0.004,0.028-0.006,0.057-0.012,0.084C71.964,71.25,71.964,71.223,71.968,71.193z"/>
	<path d="M71.956,71.277c0.006-0.027,0.008-0.056,0.012-0.084c0.027-0.21-0.008-0.43-0.135-0.621
		c-0.275-0.414-0.834-0.526-1.25-0.25l-1.127,0.751l1.127,0.751c0.15,0.1,0.324,0.152,0.498,0.152c0.146,0,0.295-0.035,0.428-0.107
		c0.039-0.021,0.07-0.051,0.105-0.076c0.074-0.057,0.141-0.121,0.193-0.193c0.01-0.016,0.025-0.029,0.035-0.045
		C71.897,71.469,71.933,71.375,71.956,71.277z"/>
	<path d="M0.887,71.975c0.174,0,0.35-0.051,0.5-0.15l1.125-0.75l-1.126-0.752c-0.417-0.276-0.977-0.164-1.25,0.25
		c-0.127,0.192-0.164,0.414-0.134,0.626c0.003,0.025,0.004,0.052,0.011,0.077c0.023,0.099,0.06,0.193,0.115,0.28
		c0.009,0.015,0.022,0.026,0.032,0.04c0.053,0.075,0.12,0.142,0.197,0.199c0.034,0.025,0.065,0.054,0.103,0.074
		C0.594,71.939,0.74,71.975,0.887,71.975z"/>
	<path d="M2.732,53.209l32.352-20.344v-2.241L1.789,51.561v1.684c0.136,0.071,0.288,0.109,0.44,0.109
		C2.401,53.354,2.576,53.307,2.732,53.209z"/>
	<path d="M36.402,32.036c0.445-0.279,0.578-0.864,0.299-1.308c-0.277-0.443-0.863-0.575-1.308-0.298l-0.31,0.195v2.241
		L36.402,32.036z"/>
	<path d="M1.723,51.602c-0.443,0.279-0.578,0.865-0.299,1.309c0.094,0.147,0.221,0.26,0.365,0.334v-1.684L1.723,51.602z"/>
	<path d="M35.083,15.595c-0.057,0.021-0.116,0.03-0.169,0.063L1.789,36.265v2.179l33.295-20.712V15.595z"/>
	<path d="M35.891,17.229c0.435-0.269,0.567-0.84,0.298-1.274c-0.236-0.382-0.703-0.512-1.105-0.36v2.137L35.891,17.229z"/>
	<path d="M0.756,36.908c-0.434,0.27-0.567,0.842-0.297,1.274c0.176,0.282,0.478,0.437,0.787,0.437c0.167,0,0.335-0.045,0.487-0.139
		l0.056-0.036v-2.179L0.756,36.908z"/>
	<polygon points="12.066,64.705 47.003,86.042 48.7,84.911 13.762,63.574 	"/>
	<path d="M12.612,62.871c-0.437-0.267-1.003-0.129-1.271,0.308c-0.266,0.437-0.129,1.005,0.307,1.271l0.418,0.256l1.696-1.131
		L12.612,62.871z"/>
	<path d="M47.94,86.614c0.152,0.092,0.316,0.135,0.482,0.135c0.311,0,0.615-0.157,0.787-0.441c0.268-0.437,0.129-1.005-0.307-1.271
		L48.7,84.911l-1.697,1.131L47.94,86.614z"/>
	<path d="M24.507,56.41c0.02,0.016,0.031,0.037,0.053,0.052l34.001,21.875l1.707-1.138L26.202,55.281L24.507,56.41z"/>
	<path d="M25.578,54.879c-0.437-0.279-1.019-0.154-1.3,0.283c-0.267,0.416-0.157,0.953,0.229,1.248l1.694-1.129L25.578,54.879z"/>
	<path d="M59.685,79.061c0.158,0.101,0.334,0.149,0.508,0.149c0.311,0,0.611-0.151,0.793-0.432c0.281-0.437,0.154-1.019-0.283-1.3
		l-0.434-0.279l-1.707,1.138L59.685,79.061z"/>
</g>
</svg>
